<svg xmlns="http://www.w3.org/2000/svg" width="1080" height="720" viewBox="0 0 1080 720">
  <defs>
    <linearGradient id="bg" x1="0" y1="0" x2="1" y2="1">
      <stop offset="0%" stop-color="#0f172a"/>
      <stop offset="55%" stop-color="#2563eb"/>
      <stop offset="100%" stop-color="#60a5fa"/>
    </linearGradient>
    <radialGradient id="orb" cx="50%" cy="50%" r="50%">
      <stop offset="0%" stop-color="#dbeafe" stop-opacity="0.95"/>
      <stop offset="100%" stop-color="#93c5fd" stop-opacity="0.18"/>
    </radialGradient>
    <linearGradient id="shine" x1="0" y1="0" x2="1" y2="1">
      <stop offset="0%" stop-color="#ffffff" stop-opacity="0.22"/>
      <stop offset="100%" stop-color="#ffffff" stop-opacity="0.02"/>
    </linearGradient>
    <filter id="blur"><feGaussianBlur stdDeviation="46"/></filter>
  </defs>

  <rect width="100%" height="100%" rx="36" fill="url(#bg)"/>
  <circle cx="958" cy="88" r="176" fill="#93c5fd" fill-opacity="0.24" filter="url(#blur)"/>
  <circle cx="116" cy="652" r="174" fill="#ffffff" fill-opacity="0.08" filter="url(#blur)"/>
  <path d="M0,560 C250,470 360,730 640,620 C850,538 920,440 1080,486 L1080,720 L0,720 Z" fill="rgba(255,255,255,0.05)"/>

  <rect x="52" y="52" width="976" height="616" rx="32" fill="rgba(10,14,25,0.14)" stroke="rgba(255,255,255,0.18)"/>
  <rect x="52" y="52" width="976" height="616" rx="32" fill="url(#shine)" opacity="0.32"/>

  <rect x="90" y="92" width="166" height="44" rx="22" fill="rgba(255,255,255,0.10)" stroke="rgba(255,255,255,0.18)"/>
  <text x="173" y="121" text-anchor="middle" font-size="21" font-weight="800" fill="#dbeafe">核心观点1</text>

  <text x="92" y="176" font-size="22" font-weight="800" fill="#93c5fd">BOOK NOTES / POINT 01</text>
  <text x="92" y="210" font-size="18" font-weight="700" fill="#cbd5e1">《小狗钱钱》</text>

  <text x="92" y="292" font-size="56" font-weight="900" fill="#f8fafc" letter-spacing="1.2">梦想储蓄罐</text>
  <text x="92" y="500" font-size="27" font-weight="500" fill="#cbd5e1">梦想储蓄罐, 成长, 商业思维</text>
  <rect x="92" y="610" width="148" height="42" rx="21" fill="rgba(147,197,253,0.12)" stroke="rgba(255,255,255,0.18)"/><text x="166.0" y="638" text-anchor="middle" font-size="21" font-weight="700" fill="#dbeafe">梦想储蓄罐</text><rect x="252" y="610" width="88" height="42" rx="21" fill="rgba(147,197,253,0.12)" stroke="rgba(255,255,255,0.18)"/><text x="296.0" y="638" text-anchor="middle" font-size="21" font-weight="700" fill="#dbeafe">成长</text><rect x="352" y="610" width="124" height="42" rx="21" fill="rgba(147,197,253,0.12)" stroke="rgba(255,255,255,0.18)"/><text x="414.0" y="638" text-anchor="middle" font-size="21" font-weight="700" fill="#dbeafe">商业思维</text>

  
    <g transform="translate(728,132)">
      <rect x="0" y="0" width="258" height="456" rx="34" fill="rgba(255,255,255,0.08)" stroke="rgba(255,255,255,0.18)"/>
      <circle cx="190" cy="72" r="88" fill="url(#orb)" fill-opacity="0.95"/>
      <circle cx="190" cy="72" r="52" fill="rgba(255,255,255,0.15)"/>
      <rect x="30" y="148" width="198" height="112" rx="28" fill="rgba(255,255,255,0.07)" stroke="rgba(255,255,255,0.18)"/>
      <text x="46" y="190" font-size="18" font-weight="700" fill="#93c5fd">BOOK INSIGHT</text>
      <text x="46" y="236" font-size="72" font-weight="900" fill="#f8fafc" opacity="0.95">01</text>
      <rect x="30" y="294" width="198" height="18" rx="9" fill="rgba(255,255,255,0.08)"/>
      <rect x="30" y="332" width="164" height="18" rx="9" fill="rgba(255,255,255,0.06)"/>
      <rect x="30" y="370" width="142" height="18" rx="9" fill="rgba(255,255,255,0.05)"/>
      <rect x="30" y="412" width="110" height="34" rx="17" fill="rgba(147,197,253,0.12)" stroke="rgba(255,255,255,0.18)"/>
      <text x="85" y="435" text-anchor="middle" font-size="18" font-weight="700" fill="#dbeafe">核心拆解</text>
    </g>
    

  <line x1="92" y1="576" x2="660" y2="576" stroke="rgba(255,255,255,0.14)"/>
  <text x="92" y="654" font-size="22" font-weight="700" fill="#cbd5e1">财商读书会 · 公众号高级模板图</text>
</svg>
