<svg xmlns="http://www.w3.org/2000/svg" width="1080" height="720" viewBox="0 0 1080 720">
  <defs>
    <linearGradient id="bg" x1="0" y1="0" x2="1" y2="1">
      <stop offset="0%" stop-color="#3f0d24"/>
      <stop offset="100%" stop-color="#be185d"/>
    </linearGradient>
    <radialGradient id="artGlow" cx="50%" cy="50%" r="50%">
      <stop offset="0%" stop-color="#ffffff" stop-opacity="0.72"/>
      <stop offset="100%" stop-color="#f9a8d4" stop-opacity="0.28"/>
    </radialGradient>
    <filter id="blur"><feGaussianBlur stdDeviation="52"/></filter>
  </defs>

  <rect width="100%" height="100%" rx="36" fill="url(#bg)"/>
  <circle cx="948" cy="96" r="188" fill="#f9a8d4" fill-opacity="0.16" filter="url(#blur)"/>
  <circle cx="124" cy="640" r="188" fill="#ffffff" fill-opacity="0.06" filter="url(#blur)"/>
  <path d="M0 566 C194 480, 372 708, 620 612 C818 535, 940 450, 1080 506 L1080 720 L0 720 Z" fill="rgba(255,255,255,0.045)"/>

  <rect x="54" y="54" width="972" height="612" rx="34" fill="rgba(255,255,255,0.06)" stroke="rgba(255,255,255,0.14)"/>
  <rect x="88" y="90" width="156" height="42" rx="21" fill="rgba(255,255,255,0.10)" stroke="rgba(255,255,255,0.14)"/>
  <text x="166" y="117" text-anchor="middle" font-size="20" font-weight="800" fill="#fbcfe8">核心观点4</text>

  <text x="88" y="176" font-size="20" font-weight="800" fill="#fbcfe8">PREMIUM WECHAT VISUAL</text>
  <text x="88" y="210" font-size="18" font-weight="700" fill="#fce7f3">《百万富翁快车道》</text>

  <text x="88" y="294" font-size="54" font-weight="900" fill="#fff1f2" letter-spacing="1.1">生意系统</text>
  <text x="88" y="504" font-size="26" font-weight="500" fill="#fce7f3">生意系统, 成长, 商业思维</text>
  <rect x="88" y="606" width="126" height="40" rx="20" fill="rgba(255,255,255,0.12)" stroke="rgba(255,255,255,0.14)"/><text x="151.0" y="632" text-anchor="middle" font-size="20" font-weight="700" fill="#fbcfe8">生意系统</text><rect x="226" y="606" width="96" height="40" rx="20" fill="rgba(255,255,255,0.12)" stroke="rgba(255,255,255,0.14)"/><text x="274.0" y="632" text-anchor="middle" font-size="20" font-weight="700" fill="#fbcfe8">成长</text>

  
    <g transform="translate(690,118)">
      <rect x="0" y="0" width="310" height="484" rx="34" fill="rgba(255,255,255,0.08)" stroke="rgba(255,255,255,0.14)"/>
      <circle cx="214" cy="92" r="108" fill="#f9a8d4" fill-opacity="0.18"/>
      <circle cx="214" cy="92" r="62" fill="rgba(255,255,255,0.08)"/>
      <path d="M70 318 C96 228, 212 192, 262 266 C284 299, 288 352, 250 390 C199 442, 101 430, 74 360 Z" fill="rgba(255,255,255,0.08)"/>
      <path d="M115 250 C136 204, 194 179, 235 214 C266 240, 270 286, 248 322 C220 369, 141 377, 108 334 C92 314, 94 282, 115 250 Z" fill="url(#artGlow)" fill-opacity="0.92"/>
      <circle cx="165" cy="278" r="16" fill="rgba(255,255,255,0.26)"/>
      <circle cx="205" cy="242" r="11" fill="rgba(255,255,255,0.18)"/>
      <circle cx="227" cy="300" r="9" fill="rgba(255,255,255,0.16)"/>
      <rect x="42" y="386" width="226" height="1.5" fill="rgba(255,255,255,0.14)"/>
      <text x="42" y="430" font-size="18" font-weight="700" fill="#fbcfe8">AI EDITORIAL ILLUSTRATION</text>
      <text x="42" y="478" font-size="72" font-weight="900" fill="#fff1f2" opacity="0.92">04</text>
      <text x="42" y="514" font-size="20" font-weight="600" fill="#fce7f3">审美升级 · 专业运营号风格</text>
    </g>
    

  <line x1="88" y1="582" x2="642" y2="582" stroke="rgba(255,255,255,0.14)"/>
  <text x="88" y="654" font-size="22" font-weight="700" fill="#fce7f3">财商读书会 · AI插画风专业模板</text>
</svg>
