<svg xmlns="http://www.w3.org/2000/svg" width="1080" height="720" viewBox="0 0 1080 720">
  <defs>
    <linearGradient id="bg" x1="0" y1="0" x2="1" y2="1">
      <stop offset="0%" stop-color="#0f172a"/>
      <stop offset="100%" stop-color="#1d4ed8"/>
    </linearGradient>
    <linearGradient id="glow" x1="0" y1="0" x2="1" y2="1">
      <stop offset="0%" stop-color="#60a5fa" stop-opacity="0.55"/>
      <stop offset="100%" stop-color="#ffffff" stop-opacity="0.05"/>
    </linearGradient>
    <filter id="blur"><feGaussianBlur stdDeviation="40"/></filter>
  </defs>

  <rect width="100%" height="100%" fill="url(#bg)" rx="36"/>
  <circle cx="920" cy="110" r="180" fill="url(#glow)" filter="url(#blur)"/>
  <circle cx="140" cy="640" r="160" fill="#60a5fa" fill-opacity="0.10" filter="url(#blur)"/>

  <rect x="70" y="60" width="940" height="600" rx="28" fill="rgba(255,255,255,0.10)" stroke="rgba(255,255,255,0.18)"/>
  <rect x="110" y="110" width="156" height="44" rx="22" fill="rgba(96,165,250,0.16)" stroke="rgba(255,255,255,0.18)"/>
  <text x="188" y="139" text-anchor="middle" font-size="22" font-weight="700" fill="#bfdbfe">核心观点1</text>

  <text x="110" y="190" font-size="24" font-weight="700" fill="#60a5fa">POINT 01</text>
  <text x="110" y="250" font-size="54" font-weight="800" fill="#f8fafc" letter-spacing="1">富兰克林自传 / 自我完善</text>
  <text x="110" y="500" font-size="28" font-weight="500" fill="#cbd5e1">极简插画, 书籍观点, 自我完善, 成长, 商业</text><text x="110" y="544" font-size="28" font-weight="500" fill="#cbd5e1">思维</text>

  <line x1="110" y1="600" x2="970" y2="600" stroke="rgba(255,255,255,0.18)"/>
  <text x="110" y="640" font-size="24" font-weight="600" fill="#cbd5e1">财商读书会 · 微信公众号视觉卡片</text>

  <g transform="translate(820,420)">
    <rect x="0" y="0" width="120" height="120" rx="26" fill="rgba(255,255,255,0.08)" stroke="rgba(255,255,255,0.18)"/>
    <circle cx="60" cy="60" r="26" fill="none" stroke="#60a5fa" stroke-width="3"/>
    <path d="M60 38 L60 82 M38 60 L82 60" stroke="#60a5fa" stroke-width="3" stroke-linecap="round"/>
  </g>
</svg>
